<svg xmlns="http://www.w3.org/2000/svg" width="16" height="16" viewBox="0 0 16 16">
    <g fill="none" fill-rule="evenodd">
        <path fill="#0064D2" d="M16 8c0 1.014-1.207 1.78-1.573 2.662-.379.914-.081 2.306-.77 2.995-.689.689-2.081.391-2.995.77C9.78 14.793 9.014 16 8 16s-1.78-1.207-2.662-1.573c-.914-.379-2.306-.081-2.995-.77-.689-.689-.391-2.081-.77-2.995C1.207 9.78 0 9.014 0 8s1.207-1.78 1.573-2.662c.379-.914.081-2.306.77-2.995.689-.689 2.081-.391 2.995-.77C6.22 1.207 6.986 0 8 0s1.78 1.207 2.662 1.573c.914.379 2.306.081 2.995.77.689.689.391 2.081.77 2.995C14.793 6.22 16 6.986 16 8"/>
        <path stroke="#FEDD00" stroke-linecap="round" stroke-linejoin="round" stroke-width="2" d="M11 6l-3.799 4L5 8.345"/>
    </g>
</svg>
